<?xml version="1.0" standalone="no"?>
<!DOCTYPE svg PUBLIC "-//W3C//DTD SVG 20010904//EN"
 "http://www.w3.org/TR/2001/REC-SVG-20010904/DTD/svg10.dtd">
<svg version="1.0" xmlns="http://www.w3.org/2000/svg"
 width="512.000000pt" height="512.000000pt" viewBox="0 0 512.000000 512.000000"
 preserveAspectRatio="xMidYMid meet">
<metadata>
Created by potrace 1.16, written by Peter Selinger 2001-2019
</metadata>
<g transform="translate(0.000000,512.000000) scale(0.100000,-0.100000)"
fill="#000000" stroke="none">
<path d="M250 5083 c-79 -52 -171 -151 -210 -224 -71 -133 -45 -308 63 -427
l21 -22 -37 -31 c-21 -17 -49 -53 -62 -80 -23 -45 -25 -58 -25 -201 0 -140 2
-157 24 -204 13 -28 41 -65 62 -82 75 -62 73 -62 661 -62 l533 0 0 -78 0 -79
-142 -6 c-374 -16 -671 -119 -880 -306 -100 -89 -189 -235 -230 -378 -21 -72
-23 -98 -23 -323 1 -261 12 -369 61 -605 105 -497 333 -937 651 -1251 391
-389 899 -613 1583 -701 107 -14 212 -17 505 -17 334 0 384 2 515 22 681 106
1145 378 1457 854 168 255 285 592 328 938 17 143 20 445 5 570 -35 289 -158
552 -277 591 -119 39 -233 -55 -279 -229 -9 -37 -21 -71 -25 -76 -11 -13 -48
66 -70 151 -17 70 -19 113 -19 500 l0 423 233 0 c259 0 293 6 361 62 21 17 49
54 62 82 22 47 24 64 24 202 0 168 -7 197 -62 260 -18 21 -55 48 -83 60 -48
23 -60 24 -292 24 -241 0 -243 0 -243 21 0 73 -67 171 -144 211 -57 30 -275
38 -360 14 -95 -28 -167 -109 -182 -205 l-7 -41 -314 0 c-242 0 -314 3 -317
13 -2 6 -10 33 -16 60 -15 57 -75 128 -134 160 -38 20 -57 22 -259 25 -265 4
-304 -4 -377 -77 -35 -35 -53 -64 -69 -114 l-23 -67 -147 0 -148 0 -13 43
c-31 106 -94 175 -181 201 -74 22 -354 22 -428 0 -77 -23 -141 -89 -170 -177
l-23 -67 -89 0 -88 0 24 36 c32 47 55 125 55 184 0 135 -105 373 -177 401 -30
11 -151 -12 -239 -48 l-62 -24 -83 65 c-104 82 -134 86 -219 29z m131 -189
l27 -26 -23 -41 c-45 -80 -53 -195 -23 -300 10 -32 9 -41 -5 -55 -16 -15 -21
-13 -73 38 -101 100 -129 182 -89 260 21 41 126 150 145 150 8 0 26 -12 41
-26z m440 -103 c24 -64 34 -138 25 -175 -11 -44 -62 -91 -133 -123 -112 -50
-119 -50 -144 -1 -28 55 -49 132 -49 183 0 79 63 139 189 182 77 26 77 26 112
-66z m1772 -1048 c3 -5 13 -89 23 -188 26 -259 26 -745 1 -869 -22 -109 -64
-225 -104 -290 l-31 -49 -25 49 c-40 80 -57 151 -63 274 -16 314 -135 534
-376 699 l-48 32 0 174 0 175 309 0 c171 0 312 -3 314 -7z m1157 -356 c0 -386
-7 -478 -45 -624 -40 -150 -123 -295 -203 -352 l-30 -21 -7 63 c-31 296 -86
670 -151 1025 -24 134 -44 250 -44 258 0 12 40 14 240 14 l240 0 0 -363z
m-2854 -422 c28 -8 73 -30 100 -49 116 -82 136 -91 199 -91 63 0 84 9 196 89
69 49 148 70 256 69 116 -1 158 -19 190 -84 13 -24 25 -64 29 -89 l6 -45 -123
0 c-143 0 -226 -20 -271 -66 -37 -36 -36 -72 1 -110 33 -33 59 -36 122 -13 48
17 183 24 240 11 l36 -7 -4 -48 c-27 -297 -168 -431 -497 -472 -138 -18 -376
-8 -481 19 -246 64 -356 194 -378 448 l-4 53 36 7 c58 13 192 6 240 -11 62
-23 88 -20 122 13 37 38 38 74 0 111 -45 46 -126 65 -269 65 l-124 0 7 49 c8
62 36 118 71 141 55 36 192 40 300 10z"/>
<path d="M1054 2536 c-21 -18 -28 -32 -28 -61 0 -29 7 -43 28 -61 25 -22 36
-24 141 -24 104 0 116 2 140 23 21 17 27 32 27 62 0 30 -6 45 -27 62 -24 21
-36 23 -140 23 -105 0 -116 -2 -141 -24z"/>
</g>
</svg>
